<?xml version="1.0" encoding="iso-8859-1"?>
<!-- Uploaded to: SVG Repo, www.svgrepo.com, Generator: SVG Repo Mixer Tools -->
<!DOCTYPE svg PUBLIC "-//W3C//DTD SVG 1.1//EN" "http://www.w3.org/Graphics/SVG/1.1/DTD/svg11.dtd">
<svg fill="#000000" version="1.1" id="Capa_1" xmlns="http://www.w3.org/2000/svg" xmlns:xlink="http://www.w3.org/1999/xlink" 
	 width="800px" height="800px" viewBox="0 0 590.969 590.969"
	 xml:space="preserve">
<g>
	<g>
		<path d="M245.521,390.523c0.246,0.244,0.496,0.484,0.744,0.727c-12.215,12.742-18.925,29.418-18.925,47.125
			c0,18.201,7.088,35.314,19.958,48.184c12.871,12.871,29.983,19.959,48.185,19.959s35.315-7.088,48.184-19.959
			c12.871-12.871,19.959-29.982,19.959-48.184c0-17.707-6.709-34.383-18.924-47.125c0.248-0.242,0.498-0.48,0.744-0.727
			c6.475-6.477,11.562-14.027,15.125-22.447c3.695-8.738,5.57-17.996,5.57-27.516V155.107c0-9.52-1.875-18.778-5.57-27.516
			c-3.562-8.419-8.65-15.971-15.125-22.446C338.971,98.669,331.42,93.58,323,90.02c-8.738-3.696-17.996-5.57-27.516-5.57
			c-9.52,0-18.778,1.874-27.516,5.57c-8.419,3.561-15.971,8.649-22.446,15.125s-11.564,14.027-15.125,22.446
			c-3.696,8.739-5.57,17.997-5.57,27.516v185.454c0,9.52,1.874,18.777,5.57,27.516C233.957,376.496,239.046,384.047,245.521,390.523
			z M295.484,463.678c-13.975,0-25.303-11.328-25.303-25.303s11.329-25.303,25.303-25.303c13.975,0,25.303,11.328,25.303,25.303
			S309.459,463.678,295.484,463.678z M267.666,155.107c0-15.364,12.454-27.818,27.818-27.818s27.817,12.454,27.817,27.818v185.454
			c0,15.363-12.453,27.818-27.817,27.818s-27.818-12.455-27.818-27.818V155.107L267.666,155.107z"/>
		<path d="M295.484,507.018c-18.335,0-35.573-7.141-48.538-20.105c-12.965-12.963-20.105-30.201-20.105-48.537
			c0-17.622,6.646-34.333,18.722-47.111l-0.394-0.386c-6.524-6.524-11.648-14.131-15.233-22.607c-3.723-8.8-5.61-18.123-5.61-27.71
			V155.107c0-9.587,1.887-18.91,5.61-27.711c3.585-8.478,8.71-16.083,15.232-22.605s14.127-11.647,22.605-15.232
			c8.8-3.723,18.123-5.61,27.711-5.61c9.587,0,18.911,1.887,27.71,5.61c8.477,3.584,16.082,8.709,22.606,15.232
			c6.519,6.52,11.644,14.125,15.232,22.605c3.722,8.802,5.609,18.125,5.609,27.711v185.454c0,9.585-1.888,18.908-5.609,27.71
			c-3.588,8.479-8.713,16.085-15.232,22.606c-0.131,0.131-0.263,0.259-0.395,0.387c12.076,12.778,18.721,29.489,18.721,47.111
			c0,18.334-7.141,35.572-20.105,48.537C331.059,499.877,313.82,507.018,295.484,507.018z M295.484,84.949
			c-9.453,0-18.646,1.861-27.321,5.531c-8.358,3.535-15.857,8.587-22.288,15.018s-11.483,13.929-15.018,22.288
			c-3.67,8.677-5.531,17.869-5.531,27.321v185.454c0,9.453,1.861,18.645,5.531,27.321c3.534,8.357,8.587,15.855,15.018,22.288
			l1.095,1.068l-0.343,0.357c-12.114,12.638-18.786,29.251-18.786,46.779c0,18.069,7.036,35.056,19.812,47.83
			c12.776,12.776,29.763,19.812,47.831,19.812c18.07,0,35.056-7.036,47.831-19.812c12.776-12.776,19.812-29.763,19.812-47.83
			c0-17.529-6.671-34.143-18.785-46.779l-0.343-0.357l0.604-0.588c0.165-0.159,0.329-0.318,0.491-0.48
			c6.429-6.431,11.481-13.93,15.018-22.289c3.671-8.678,5.531-17.87,5.531-27.32V155.107c0-9.451-1.86-18.643-5.531-27.321
			c-3.537-8.361-8.59-15.86-15.018-22.288c-6.433-6.431-13.932-11.484-22.288-15.018C314.129,86.81,304.937,84.949,295.484,84.949z
			 M295.484,464.178c-14.228,0-25.803-11.575-25.803-25.803s11.575-25.803,25.803-25.803s25.803,11.575,25.803,25.803
			S309.712,464.178,295.484,464.178z M295.484,413.572c-13.677,0-24.803,11.126-24.803,24.803c0,13.676,11.126,24.803,24.803,24.803
			c13.676,0,24.803-11.127,24.803-24.803C320.287,424.698,309.16,413.572,295.484,413.572z M295.484,368.879
			c-15.615,0-28.318-12.703-28.318-28.318V155.107c0-15.615,12.703-28.318,28.318-28.318c15.614,0,28.317,12.703,28.317,28.318
			v185.454C323.801,356.176,311.098,368.879,295.484,368.879z M295.484,127.789c-15.063,0-27.318,12.255-27.318,27.318v185.454
			c0,15.063,12.255,27.318,27.318,27.318s27.317-12.255,27.317-27.318V155.107C322.801,140.044,310.547,127.789,295.484,127.789z"/>
	</g>
	<g>
		<path d="M180.649,567.27c36.395,15.393,75.031,23.199,114.834,23.199c39.803,0,78.44-7.807,114.834-23.199
			c35.131-14.859,66.674-36.123,93.752-63.201c27.076-27.076,48.34-58.619,63.199-93.75c15.393-36.395,23.199-75.031,23.199-114.834
			c0-39.804-7.807-78.439-23.199-114.834c-14.859-35.132-36.123-66.674-63.201-93.751c-27.076-27.078-58.619-48.34-93.75-63.2
			C373.924,8.305,335.287,0.5,295.484,0.5c-39.804,0-78.439,7.805-114.834,23.199c-35.132,14.859-66.674,36.123-93.751,63.2
			c-27.078,27.077-48.34,58.619-63.2,93.75C8.305,217.044,0.5,255.68,0.5,295.484c0,39.803,7.805,78.44,23.199,114.834
			c14.859,35.131,36.123,66.674,63.2,93.752C113.976,531.146,145.518,552.41,180.649,567.27z M295.484,43.34
			c139.256,0,252.143,112.888,252.143,252.144c0,139.256-112.887,252.143-252.143,252.143
			c-139.256,0-252.144-112.887-252.144-252.143C43.34,156.228,156.228,43.34,295.484,43.34z"/>
		<path d="M295.484,590.969c-39.868,0-78.569-7.818-115.029-23.238c-35.19-14.885-66.786-36.184-93.909-63.307
			c-27.123-27.124-48.422-58.72-63.307-93.911C7.818,374.057,0,335.355,0,295.484c0-39.871,7.818-78.572,23.238-115.029
			c14.885-35.192,36.184-66.787,63.307-93.909c27.124-27.124,58.719-48.423,93.91-63.307C216.912,7.818,255.613,0,295.484,0
			c39.872,0,78.573,7.818,115.029,23.238c35.193,14.886,66.789,36.185,93.909,63.307c27.124,27.123,48.424,58.719,63.309,93.91
			c15.42,36.46,23.238,75.162,23.238,115.029c0,39.869-7.818,78.57-23.238,115.029c-14.886,35.191-36.185,66.787-63.307,93.909
			c-27.123,27.123-58.72,48.423-93.911,63.309C374.054,583.15,335.353,590.969,295.484,590.969z M295.484,1
			c-39.736,0-78.307,7.792-114.64,23.159c-35.071,14.834-66.561,36.062-93.592,63.093c-27.031,27.03-48.258,58.519-63.093,93.592
			C8.792,217.177,1,255.748,1,295.484c0,39.737,7.792,78.307,23.159,114.64c14.834,35.071,36.062,66.561,63.093,93.593
			c27.032,27.031,58.521,48.259,93.592,63.092c36.336,15.368,74.906,23.16,114.64,23.16c39.734,0,78.304-7.792,114.64-23.16
			c35.071-14.834,66.562-36.062,93.593-63.094c27.03-27.03,48.258-58.52,63.092-93.591c15.368-36.336,23.16-74.906,23.16-114.64
			c0-39.733-7.792-78.304-23.16-114.64c-14.834-35.072-36.062-66.561-63.094-93.592c-27.028-27.03-58.518-48.257-93.591-63.093
			C373.791,8.792,335.221,1,295.484,1z M295.484,548.127c-67.484,0-130.929-26.279-178.646-73.997
			C69.119,426.412,42.84,362.968,42.84,295.484s26.279-130.929,73.998-178.646C164.555,69.119,228,42.84,295.484,42.84
			s130.928,26.279,178.646,73.998c47.718,47.718,73.997,111.163,73.997,178.646S521.848,426.412,474.13,474.13
			S362.968,548.127,295.484,548.127z M295.484,43.84c-67.217,0-130.41,26.175-177.939,73.705S43.84,228.267,43.84,295.484
			c0,67.217,26.175,130.411,73.705,177.939c47.529,47.529,110.723,73.704,177.939,73.704c67.217,0,130.411-26.175,177.939-73.704
			c47.529-47.528,73.704-110.722,73.704-177.939c0-67.217-26.175-130.41-73.704-177.939C425.895,70.015,362.701,43.84,295.484,43.84
			z"/>
	</g>
</g>
</svg>